<svg width="30" height="30" viewBox="0 0 30 30" fill="none" xmlns="http://www.w3.org/2000/svg">
<g clip-path="url(#clip0_111_1979)">
<path d="M29.6511 22.0795C29.5646 20.1701 28.7512 18.3986 27.3607 17.0915C27.309 17.0429 27.1382 16.8898 27.1071 16.8621C26.2608 16.1089 25.1726 15.7425 24.0426 15.8299C23.9926 15.8337 23.9431 15.8395 23.8935 15.8452L4.25082 0.264313C3.74375 -0.138006 3.00939 -0.0742411 2.57903 0.40922C2.14895 0.892474 2.17069 1.62912 2.6286 2.08621L20.2475 19.671C20.1705 20.8558 20.5991 22.0631 21.5131 22.9335C22.0507 23.4453 22.7142 23.8033 23.4316 23.9685C24.9569 24.32 26.1151 25.4341 26.4542 26.8759C26.4843 27.0039 26.5101 27.1338 26.5325 27.2641C23.7585 28.4874 20.2766 29.1589 16.6862 29.1589C15.5275 29.1589 14.3886 29.0907 13.2845 28.9586C10.8899 28.6118 8.69786 27.8445 6.93544 26.7143C4.51066 25.1595 3.17956 23.0879 3.17956 20.881C3.17956 18.006 4.97003 15.7613 8.80704 13.8391C9.01343 13.7357 9.10835 13.4929 9.02499 13.2776C8.93949 13.0568 8.69613 12.9405 8.47071 13.0131C6.13662 13.7645 4.16677 14.8296 2.75488 16.1065C1.17593 17.5345 0.341248 19.1889 0.341248 20.8908C0.341248 23.3693 2.07514 25.6794 5.22356 27.3956C7.45123 28.61 10.2074 29.4278 13.2045 29.7851C14.1936 29.927 15.2129 29.9999 16.2464 29.9999V29.9862C16.3927 29.9884 16.5393 29.9896 16.6863 29.9896C20.3262 29.9896 23.8479 29.2722 26.7196 28.0888C27.0643 27.9468 27.642 27.4539 27.8107 27.2644C29.0842 25.8338 29.7377 23.9925 29.6511 22.0795ZM1.17206 20.8908C1.17206 19.0084 2.39438 17.21 4.53593 15.7694C3.05695 17.2515 2.34682 18.93 2.34682 20.881C2.34682 22.8947 3.30072 24.7916 5.06799 26.3486C2.55002 24.8297 1.17206 22.9079 1.17206 20.8908ZM3.19964 0.9615C3.33742 0.806762 3.5724 0.786546 3.73461 0.915182L21.0775 14.6718C20.4735 14.9286 19.9413 15.3263 19.5123 15.8475C19.2117 16.2129 18.9782 16.628 18.8199 17.0721L3.2155 1.49813C3.069 1.35191 3.06201 1.11617 3.19964 0.9615ZM19.4898 17.7409C19.6013 17.2395 19.8284 16.7709 20.1538 16.3754C20.5984 15.8352 21.1815 15.4607 21.8484 15.2834L22.8711 16.0946C22.2162 16.347 21.6333 16.7651 21.1724 17.3251C20.8332 17.7373 20.5876 18.1989 20.4334 18.6827L19.4898 17.7409ZM27.2523 26.6412C26.8271 24.9106 25.4388 23.5784 23.6183 23.1589C23.0457 23.0269 22.5159 22.7409 22.0861 22.3317C20.8416 21.1467 20.7221 19.1795 21.8139 17.853C22.3906 17.1524 23.2049 16.7281 24.1069 16.6582C24.1946 16.6514 24.282 16.648 24.3688 16.648C25.1765 16.648 25.9444 16.9395 26.5546 17.4826C26.5886 17.513 26.7468 17.6547 26.7915 17.6967C28.0236 18.8551 28.7444 20.425 28.8211 22.1171C28.8965 23.781 28.34 25.3837 27.2523 26.6412Z" fill="url(#paint0_linear_111_1979)"/>
</g>
<defs>
<linearGradient id="paint0_linear_111_1979" x1="15" y1="0" x2="15" y2="29.9999" gradientUnits="userSpaceOnUse">
<stop stop-color="#FA7846"/>
<stop offset="1" stop-color="#91665E"/>
</linearGradient>
<clipPath id="clip0_111_1979">
<rect width="30" height="30" fill="white"/>
</clipPath>
</defs>
</svg>
